<svg width="15" height="15" viewBox="0 0 15 15" fill="none" xmlns="http://www.w3.org/2000/svg">
<g clip-path="url(#clip0_48_67)">
<path d="M14.6064 11.5719L11.5704 9.5472C11.1851 9.29232 10.6686 9.37619 10.3838 9.73991L9.49941 10.877C9.38576 11.0269 9.17916 11.0703 9.01474 10.979L8.84651 10.8862C8.28884 10.5823 7.59496 10.2038 6.19691 8.80531C4.79887 7.40676 4.41968 6.71236 4.11571 6.15571L4.02347 5.98748C3.93087 5.82309 3.97352 5.61561 4.12344 5.50105L5.25976 4.61694C5.62334 4.33207 5.70732 3.81576 5.45274 3.43036L3.42804 0.394309C3.16713 0.00184727 2.64367 -0.115967 2.23976 0.126838L0.97019 0.889469C0.571284 1.12399 0.278622 1.50379 0.153573 1.9493C-0.303596 3.61505 0.0403274 6.48988 4.27521 10.7253C7.64396 14.0938 10.1518 14.9996 11.8756 14.9996C12.2723 15.0013 12.6675 14.9497 13.0504 14.8462C13.496 14.7213 13.8759 14.4286 14.1103 14.0295L14.8737 12.7607C15.1168 12.3567 14.9991 11.833 14.6064 11.5719ZM14.4429 12.5042L13.6813 13.7738C13.513 14.0618 13.2398 14.2736 12.9189 14.3647C11.3811 14.7869 8.69454 14.4372 4.62888 10.3716C0.563229 6.30592 0.213564 3.61956 0.635757 2.08156C0.727032 1.76028 0.939052 1.48671 1.22741 1.31817L2.49697 0.556531C2.67223 0.451077 2.89942 0.502193 3.01264 0.6725L4.11249 2.32375L5.03561 3.70829C5.14616 3.87546 5.10984 4.09952 4.95213 4.22322L3.81555 5.10733C3.46966 5.37181 3.37089 5.85036 3.58384 6.23017L3.6741 6.39415C3.99356 6.98006 4.39074 7.70895 5.84078 9.15875C7.29081 10.6085 8.01947 11.0057 8.60511 11.3252L8.76933 11.4157C9.1491 11.6286 9.62768 11.5298 9.89217 11.1839L10.7763 10.0474C10.9 9.88974 11.124 9.85345 11.2912 9.96388L14.327 11.9886C14.4974 12.1017 14.5485 12.329 14.4429 12.5042Z" fill="#F2F2F2"/>
<path d="M8.49956 2.50137C10.8453 2.50398 12.7463 4.40498 12.7489 6.75075C12.7489 6.88881 12.8608 7.0007 12.9989 7.0007C13.1369 7.0007 13.2488 6.88881 13.2488 6.75075C13.2459 4.12898 11.1213 2.00434 8.49956 2.00146C8.3615 2.00146 8.2496 2.11336 8.2496 2.25142C8.2496 2.38947 8.3615 2.50137 8.49956 2.50137Z" fill="#F2F2F2"/>
<path d="M8.49956 4.00113C10.0174 4.00291 11.2474 5.23291 11.2492 6.75073C11.2492 6.88878 11.3611 7.00068 11.4991 7.00068C11.6372 7.00068 11.7491 6.88878 11.7491 6.75073C11.747 4.95691 10.2933 3.50327 8.49956 3.50122C8.3615 3.50122 8.2496 3.61312 8.2496 3.75117C8.2496 3.88923 8.3615 4.00113 8.49956 4.00113Z" fill="#F2F2F2"/>
<path d="M8.49956 5.50113C9.18945 5.50195 9.74853 6.06102 9.74938 6.75095C9.74938 6.88901 9.86131 7.0009 9.99933 7.0009C10.1374 7.0009 10.2493 6.88901 10.2493 6.75095C10.2482 5.78506 9.46545 5.0023 8.49956 5.00122C8.3615 5.00122 8.2496 5.11312 8.2496 5.25117C8.2496 5.38923 8.3615 5.50113 8.49956 5.50113Z" fill="#F2F2F2"/>
</g>
<defs>
<clipPath id="clip0_48_67">
<rect width="15" height="15" fill="white"/>
</clipPath>
</defs>
</svg>
