<svg width="15" height="15" viewBox="0 0 15 15" fill="none" xmlns="http://www.w3.org/2000/svg">
<g clip-path="url(#clip0_48_58)">
<path d="M13.1688 1.79236H1.83426C0.822471 1.79236 0 2.61483 0 3.62662V11.3734C0 12.3852 0.822471 13.2076 1.83426 13.2076H13.1657C14.1775 13.2076 15 12.3852 15 11.3734V3.62973C15.0031 2.61793 14.1806 1.79236 13.1688 1.79236ZM14.1651 11.3734C14.1651 11.9227 13.7182 12.3696 13.1688 12.3696H1.83426C1.28492 12.3696 0.837989 11.9227 0.837989 11.3734V3.62973C0.837989 3.08038 1.28492 2.63345 1.83426 2.63345H13.1657C13.7151 2.63345 14.162 3.08038 14.162 3.62973V11.3734H14.1651Z" fill="#F2F2F2"/>
<path d="M9.45997 7.40383L13.1285 4.11395C13.2992 3.95876 13.3147 3.69495 13.1595 3.52115C13.0044 3.35045 12.7405 3.33493 12.5667 3.49011L7.50777 8.03077L6.52081 7.14933C6.5177 7.14623 6.5146 7.14312 6.5146 7.14002C6.49287 7.11829 6.47115 7.09967 6.44632 7.08105L2.43018 3.48701C2.25637 3.33182 1.99256 3.34734 1.83738 3.52115C1.6822 3.69495 1.69771 3.95876 1.87152 4.11395L5.5835 7.43176L1.88704 10.8923C1.71944 11.0506 1.71013 11.3144 1.86842 11.4851C1.95222 11.572 2.06395 11.6186 2.17568 11.6186C2.2781 11.6186 2.38052 11.5814 2.46122 11.5069L6.21354 7.99663L7.23155 8.906C7.31224 8.97739 7.41156 9.01153 7.51088 9.01153C7.61019 9.01153 7.71261 8.97428 7.7902 8.9029L8.83614 7.96559L12.5667 11.51C12.6474 11.5876 12.753 11.6248 12.8554 11.6248C12.9671 11.6248 13.0757 11.5814 13.1595 11.4945C13.3178 11.3269 13.3116 11.0599 13.144 10.9017L9.45997 7.40383Z" fill="#F2F2F2"/>
</g>
<defs>
<clipPath id="clip0_48_58">
<rect width="15" height="15" fill="white"/>
</clipPath>
</defs>
</svg>
